<svg id="visual" viewBox="0 0 1920 1080" width="1920" height="1080" xmlns="http://www.w3.org/2000/svg" xmlns:xlink="http://www.w3.org/1999/xlink" version="1.1"><path d="M0 131L175 152L349 120L524 195L698 120L873 174L1047 131L1222 174L1396 98L1571 87L1745 185L1920 185L1920 0L1745 0L1571 0L1396 0L1222 0L1047 0L873 0L698 0L524 0L349 0L175 0L0 0Z" fill="#618264"></path><path d="M0 303L175 584L349 563L524 357L698 314L873 530L1047 476L1222 422L1396 465L1571 509L1745 595L1920 595L1920 183L1745 183L1571 85L1396 96L1222 172L1047 129L873 172L698 118L524 193L349 118L175 150L0 129Z" fill="#a5c0a7"></path><path d="M0 768L175 725L349 703L524 703L698 843L873 800L1047 681L1222 757L1396 757L1571 789L1745 843L1920 757L1920 593L1745 593L1571 507L1396 463L1222 420L1047 474L873 528L698 312L524 355L349 561L175 582L0 301Z" fill="#d0e7d2"></path><path d="M0 908L175 876L349 768L524 865L698 984L873 951L1047 811L1222 908L1396 876L1571 951L1745 941L1920 865L1920 755L1745 841L1571 787L1396 755L1222 755L1047 679L873 798L698 841L524 701L349 701L175 723L0 766Z" fill="#a5c0a7"></path><path d="M0 1081L175 1081L349 1081L524 1081L698 1081L873 1081L1047 1081L1222 1081L1396 1081L1571 1081L1745 1081L1920 1081L1920 863L1745 939L1571 949L1396 874L1222 906L1047 809L873 949L698 982L524 863L349 766L175 874L0 906Z" fill="#618264"></path></svg>